<mxfile modified="2023-12-11T15:26:10.358Z" host="app.diagrams.net" agent="Mozilla/5.0 (X11; Linux x86_64) AppleWebKit/537.36 (KHTML, like Gecko) Chrome/119.0.0.0 Safari/537.36" etag="mVj4MaQXtxn9WNlclQwa" version="22.1.7" type="github">
  <diagram id="Ht1M8jgEwFfnCIfOTk4-" name="Page-1">
    <mxGraphModel dx="1370" dy="953" grid="1" gridSize="10" guides="1" tooltips="1" connect="1" arrows="1" fold="1" page="1" pageScale="1" pageWidth="827" pageHeight="1169" math="0" shadow="0">
      <root>
        <mxCell id="0" />
        <mxCell id="1" parent="0" />
        <mxCell id="-QjtrjUzRDEMRZ5MF8oH-47" value="Deep Lake Infrastructure" style="text;html=1;resizable=0;points=[];autosize=1;align=left;verticalAlign=top;spacingTop=-4;fontSize=30;fontStyle=1;labelBackgroundColor=none;" parent="1" vertex="1">
          <mxGeometry x="36.5" y="26.5" width="380" height="40" as="geometry" />
        </mxCell>
        <mxCell id="-QjtrjUzRDEMRZ5MF8oH-48" value="AWS" style="text;html=1;resizable=0;points=[];autosize=1;align=left;verticalAlign=top;spacingTop=-4;fontSize=16;labelBackgroundColor=none;" parent="1" vertex="1">
          <mxGeometry x="36.5" y="76.5" width="60" height="30" as="geometry" />
        </mxCell>
        <mxCell id="SCVMTBWpLvtzJIhz15lM-1" value="" style="line;strokeWidth=2;html=1;fontSize=14;labelBackgroundColor=none;" parent="1" vertex="1">
          <mxGeometry x="32.5" y="101.5" width="1060" height="10" as="geometry" />
        </mxCell>
        <mxCell id="Ie8zL6aJrsVR2wh513dQ-46" value="" style="group" vertex="1" connectable="0" parent="1">
          <mxGeometry x="40" y="130" width="884.5" height="350" as="geometry" />
        </mxCell>
        <mxCell id="jZVaUwOg5UY3L9NAnvdq-121" value="" style="edgeStyle=elbowEdgeStyle;rounded=0;orthogonalLoop=1;jettySize=auto;html=1;endArrow=open;endFill=0;strokeColor=#545B64;strokeWidth=2;fontSize=14;" parent="Ie8zL6aJrsVR2wh513dQ-46" edge="1">
          <mxGeometry relative="1" as="geometry">
            <mxPoint x="658.5" y="56.5" as="sourcePoint" />
            <mxPoint x="805.0454545454545" y="56.5" as="targetPoint" />
          </mxGeometry>
        </mxCell>
        <mxCell id="jZVaUwOg5UY3L9NAnvdq-93" value="Bitcoin" style="outlineConnect=0;fontColor=#232F3E;gradientColor=none;fillColor=#232F3E;strokeColor=none;dashed=0;verticalLabelPosition=bottom;verticalAlign=top;align=center;html=1;fontSize=12;fontStyle=0;aspect=fixed;pointerEvents=1;shape=mxgraph.aws4.external_sdk;labelBackgroundColor=none;" parent="Ie8zL6aJrsVR2wh513dQ-46" vertex="1">
          <mxGeometry x="806.5000000000002" y="126" width="68" height="78" as="geometry" />
        </mxCell>
        <mxCell id="jZVaUwOg5UY3L9NAnvdq-94" value="API&lt;br&gt;" style="outlineConnect=0;fontColor=#232F3E;gradientColor=none;fillColor=#232F3E;strokeColor=none;dashed=0;verticalLabelPosition=bottom;verticalAlign=top;align=center;html=1;fontSize=12;fontStyle=0;aspect=fixed;pointerEvents=1;shape=mxgraph.aws4.external_sdk;labelBackgroundColor=none;" parent="Ie8zL6aJrsVR2wh513dQ-46" vertex="1">
          <mxGeometry x="806.5000000000002" y="241.5" width="68" height="78" as="geometry" />
        </mxCell>
        <mxCell id="Ie8zL6aJrsVR2wh513dQ-12" value="" style="edgeStyle=elbowEdgeStyle;rounded=0;orthogonalLoop=1;jettySize=auto;html=1;endArrow=open;endFill=0;strokeColor=#545B64;strokeWidth=2;fontSize=14;" edge="1" parent="Ie8zL6aJrsVR2wh513dQ-46">
          <mxGeometry relative="1" as="geometry">
            <mxPoint x="658" y="180" as="sourcePoint" />
            <mxPoint x="804.5" y="180.5" as="targetPoint" />
          </mxGeometry>
        </mxCell>
        <mxCell id="Ie8zL6aJrsVR2wh513dQ-43" style="edgeStyle=none;rounded=0;orthogonalLoop=1;jettySize=auto;html=1;" edge="1" parent="Ie8zL6aJrsVR2wh513dQ-46" target="jZVaUwOg5UY3L9NAnvdq-94">
          <mxGeometry relative="1" as="geometry">
            <mxPoint x="520" y="170" as="sourcePoint" />
            <Array as="points">
              <mxPoint x="520" y="281" />
            </Array>
          </mxGeometry>
        </mxCell>
        <mxCell id="Ie8zL6aJrsVR2wh513dQ-1" value="Amazon RDS&lt;br&gt;multi-region failover" style="sketch=0;points=[[0,0,0],[0.25,0,0],[0.5,0,0],[0.75,0,0],[1,0,0],[0,1,0],[0.25,1,0],[0.5,1,0],[0.75,1,0],[1,1,0],[0,0.25,0],[0,0.5,0],[0,0.75,0],[1,0.25,0],[1,0.5,0],[1,0.75,0]];outlineConnect=0;fontColor=#232F3E;fillColor=#C925D1;strokeColor=#ffffff;dashed=0;verticalLabelPosition=bottom;verticalAlign=top;align=center;html=1;fontSize=12;fontStyle=0;aspect=fixed;shape=mxgraph.aws4.resourceIcon;resIcon=mxgraph.aws4.rds;" vertex="1" parent="Ie8zL6aJrsVR2wh513dQ-46">
          <mxGeometry x="200" y="80" width="78" height="78" as="geometry" />
        </mxCell>
        <mxCell id="Ie8zL6aJrsVR2wh513dQ-2" value="Load Balancer" style="sketch=0;points=[[0,0,0],[0.25,0,0],[0.5,0,0],[0.75,0,0],[1,0,0],[0,1,0],[0.25,1,0],[0.5,1,0],[0.75,1,0],[1,1,0],[0,0.25,0],[0,0.5,0],[0,0.75,0],[1,0.25,0],[1,0.5,0],[1,0.75,0]];outlineConnect=0;fontColor=#232F3E;fillColor=#8C4FFF;strokeColor=#ffffff;dashed=0;verticalLabelPosition=bottom;verticalAlign=top;align=center;html=1;fontSize=12;fontStyle=0;aspect=fixed;shape=mxgraph.aws4.resourceIcon;resIcon=mxgraph.aws4.elastic_load_balancing;" vertex="1" parent="Ie8zL6aJrsVR2wh513dQ-46">
          <mxGeometry x="580" y="17.5" width="78" height="78" as="geometry" />
        </mxCell>
        <mxCell id="Ie8zL6aJrsVR2wh513dQ-3" value="API Server" style="sketch=0;points=[[0,0,0],[0.25,0,0],[0.5,0,0],[0.75,0,0],[1,0,0],[0,1,0],[0.25,1,0],[0.5,1,0],[0.75,1,0],[1,1,0],[0,0.25,0],[0,0.5,0],[0,0.75,0],[1,0.25,0],[1,0.5,0],[1,0.75,0]];outlineConnect=0;fontColor=#232F3E;fillColor=#ED7100;strokeColor=#ffffff;dashed=0;verticalLabelPosition=bottom;verticalAlign=top;align=center;html=1;fontSize=12;fontStyle=0;aspect=fixed;shape=mxgraph.aws4.resourceIcon;resIcon=mxgraph.aws4.ec2;" vertex="1" parent="Ie8zL6aJrsVR2wh513dQ-46">
          <mxGeometry x="400" y="17.5" width="78" height="78" as="geometry" />
        </mxCell>
        <mxCell id="Ie8zL6aJrsVR2wh513dQ-9" style="edgeStyle=none;rounded=0;orthogonalLoop=1;jettySize=auto;html=1;" edge="1" parent="Ie8zL6aJrsVR2wh513dQ-46" target="Ie8zL6aJrsVR2wh513dQ-7">
          <mxGeometry relative="1" as="geometry">
            <mxPoint x="520" y="180" as="sourcePoint" />
          </mxGeometry>
        </mxCell>
        <mxCell id="Ie8zL6aJrsVR2wh513dQ-4" value="API Server" style="sketch=0;points=[[0,0,0],[0.25,0,0],[0.5,0,0],[0.75,0,0],[1,0,0],[0,1,0],[0.25,1,0],[0.5,1,0],[0.75,1,0],[1,1,0],[0,0.25,0],[0,0.5,0],[0,0.75,0],[1,0.25,0],[1,0.5,0],[1,0.75,0]];outlineConnect=0;fontColor=#232F3E;fillColor=#ED7100;strokeColor=#ffffff;dashed=0;verticalLabelPosition=bottom;verticalAlign=top;align=center;html=1;fontSize=12;fontStyle=0;aspect=fixed;shape=mxgraph.aws4.resourceIcon;resIcon=mxgraph.aws4.ec2;" vertex="1" parent="Ie8zL6aJrsVR2wh513dQ-46">
          <mxGeometry x="400" y="140" width="78" height="78" as="geometry" />
        </mxCell>
        <mxCell id="Ie8zL6aJrsVR2wh513dQ-5" value="" style="edgeStyle=elbowEdgeStyle;rounded=0;orthogonalLoop=1;jettySize=auto;html=1;endArrow=open;endFill=0;strokeColor=#545B64;strokeWidth=2;fontSize=14;exitX=1;exitY=0.5;exitDx=0;exitDy=0;exitPerimeter=0;entryX=0;entryY=0.5;entryDx=0;entryDy=0;entryPerimeter=0;" edge="1" parent="Ie8zL6aJrsVR2wh513dQ-46" source="Ie8zL6aJrsVR2wh513dQ-1" target="Ie8zL6aJrsVR2wh513dQ-4">
          <mxGeometry relative="1" as="geometry">
            <mxPoint x="330" y="129.5" as="sourcePoint" />
            <mxPoint x="330" y="228.5" as="targetPoint" />
          </mxGeometry>
        </mxCell>
        <mxCell id="Ie8zL6aJrsVR2wh513dQ-6" value="" style="edgeStyle=elbowEdgeStyle;rounded=0;orthogonalLoop=1;jettySize=auto;html=1;endArrow=open;endFill=0;strokeColor=#545B64;strokeWidth=2;fontSize=14;exitX=1;exitY=0.5;exitDx=0;exitDy=0;exitPerimeter=0;entryX=0;entryY=0.5;entryDx=0;entryDy=0;entryPerimeter=0;" edge="1" parent="Ie8zL6aJrsVR2wh513dQ-46" source="Ie8zL6aJrsVR2wh513dQ-1" target="Ie8zL6aJrsVR2wh513dQ-3">
          <mxGeometry relative="1" as="geometry">
            <mxPoint x="352" y="347" as="sourcePoint" />
            <mxPoint x="352" y="446" as="targetPoint" />
          </mxGeometry>
        </mxCell>
        <mxCell id="jZVaUwOg5UY3L9NAnvdq-73" value="Amazon S3" style="outlineConnect=0;fontColor=#232F3E;gradientColor=#60A337;gradientDirection=north;fillColor=#277116;strokeColor=#ffffff;dashed=0;verticalLabelPosition=bottom;verticalAlign=top;align=center;html=1;fontSize=12;fontStyle=0;aspect=fixed;shape=mxgraph.aws4.resourceIcon;resIcon=mxgraph.aws4.s3;labelBackgroundColor=none;" parent="Ie8zL6aJrsVR2wh513dQ-46" vertex="1">
          <mxGeometry x="20" y="80" width="78" height="78" as="geometry" />
        </mxCell>
        <mxCell id="jZVaUwOg5UY3L9NAnvdq-128" value="" style="edgeStyle=elbowEdgeStyle;rounded=0;orthogonalLoop=1;jettySize=auto;html=1;endArrow=open;endFill=0;strokeColor=#545B64;strokeWidth=2;fontSize=14;exitX=0;exitY=0.5;exitDx=0;exitDy=0;exitPerimeter=0;" parent="Ie8zL6aJrsVR2wh513dQ-46" source="Ie8zL6aJrsVR2wh513dQ-1" target="jZVaUwOg5UY3L9NAnvdq-73" edge="1">
          <mxGeometry relative="1" as="geometry">
            <mxPoint x="332" y="327" as="sourcePoint" />
          </mxGeometry>
        </mxCell>
        <mxCell id="Ie8zL6aJrsVR2wh513dQ-7" value="Bitcoin Mainnet" style="sketch=0;points=[[0,0,0],[0.25,0,0],[0.5,0,0],[0.75,0,0],[1,0,0],[0,1,0],[0.25,1,0],[0.5,1,0],[0.75,1,0],[1,1,0],[0,0.25,0],[0,0.5,0],[0,0.75,0],[1,0.25,0],[1,0.5,0],[1,0.75,0]];outlineConnect=0;fontColor=#232F3E;fillColor=#ED7100;strokeColor=#ffffff;dashed=0;verticalLabelPosition=bottom;verticalAlign=top;align=center;html=1;fontSize=12;fontStyle=0;aspect=fixed;shape=mxgraph.aws4.resourceIcon;resIcon=mxgraph.aws4.ec2;" vertex="1" parent="Ie8zL6aJrsVR2wh513dQ-46">
          <mxGeometry x="580" y="141" width="78" height="78" as="geometry" />
        </mxCell>
        <mxCell id="jZVaUwOg5UY3L9NAnvdq-123" value="" style="edgeStyle=orthogonalEdgeStyle;rounded=0;orthogonalLoop=1;jettySize=auto;html=1;endArrow=open;endFill=0;strokeColor=#545B64;strokeWidth=2;fontSize=14;entryX=0;entryY=0.5;entryDx=0;entryDy=0;entryPerimeter=0;" parent="Ie8zL6aJrsVR2wh513dQ-46" source="Ie8zL6aJrsVR2wh513dQ-4" target="Ie8zL6aJrsVR2wh513dQ-2" edge="1">
          <mxGeometry relative="1" as="geometry">
            <Array as="points">
              <mxPoint x="520" y="180" />
              <mxPoint x="520" y="57" />
            </Array>
            <mxPoint x="487.99911285002645" y="141.5" as="sourcePoint" />
            <mxPoint x="520" y="60" as="targetPoint" />
          </mxGeometry>
        </mxCell>
        <mxCell id="Ie8zL6aJrsVR2wh513dQ-11" style="edgeStyle=orthogonalEdgeStyle;rounded=0;orthogonalLoop=1;jettySize=auto;html=1;exitX=1;exitY=0.5;exitDx=0;exitDy=0;exitPerimeter=0;entryX=0;entryY=0.5;entryDx=0;entryDy=0;entryPerimeter=0;" edge="1" parent="Ie8zL6aJrsVR2wh513dQ-46" source="Ie8zL6aJrsVR2wh513dQ-3" target="Ie8zL6aJrsVR2wh513dQ-2">
          <mxGeometry relative="1" as="geometry" />
        </mxCell>
        <mxCell id="jZVaUwOg5UY3L9NAnvdq-71" value="AWS Public VPC" style="points=[[0,0],[0.25,0],[0.5,0],[0.75,0],[1,0],[1,0.25],[1,0.5],[1,0.75],[1,1],[0.75,1],[0.5,1],[0.25,1],[0,1],[0,0.75],[0,0.5],[0,0.25]];outlineConnect=0;gradientColor=none;html=1;whiteSpace=wrap;fontSize=12;fontStyle=0;shape=mxgraph.aws4.group;grIcon=mxgraph.aws4.group_aws_cloud_alt;strokeColor=#009900;fillColor=none;verticalAlign=top;align=left;spacingLeft=30;fontColor=#232F3E;dashed=0;labelBackgroundColor=none;container=0;pointerEvents=0;collapsible=0;recursiveResize=0;movable=1;resizable=1;rotatable=1;deletable=1;editable=1;locked=0;connectable=1;" parent="Ie8zL6aJrsVR2wh513dQ-46" vertex="1">
          <mxGeometry x="450" y="0.5" width="334" height="349.5" as="geometry" />
        </mxCell>
        <mxCell id="Ie8zL6aJrsVR2wh513dQ-45" value="AWS Private VPC" style="points=[[0,0],[0.25,0],[0.5,0],[0.75,0],[1,0],[1,0.25],[1,0.5],[1,0.75],[1,1],[0.75,1],[0.5,1],[0.25,1],[0,1],[0,0.75],[0,0.5],[0,0.25]];outlineConnect=0;gradientColor=none;html=1;whiteSpace=wrap;fontSize=12;fontStyle=0;shape=mxgraph.aws4.group;grIcon=mxgraph.aws4.group_aws_cloud_alt;strokeColor=#FF6F0F;fillColor=none;verticalAlign=top;align=left;spacingLeft=30;fontColor=#232F3E;dashed=0;labelBackgroundColor=none;container=0;pointerEvents=0;collapsible=0;recursiveResize=0;movable=1;resizable=1;rotatable=1;deletable=1;editable=1;locked=0;connectable=1;" vertex="1" parent="Ie8zL6aJrsVR2wh513dQ-46">
          <mxGeometry width="445" height="350" as="geometry" />
        </mxCell>
        <mxCell id="Ie8zL6aJrsVR2wh513dQ-82" value="Customer Applications&lt;br&gt;" style="sketch=0;points=[[0,0,0],[0.25,0,0],[0.5,0,0],[0.75,0,0],[1,0,0],[0,1,0],[0.25,1,0],[0.5,1,0],[0.75,1,0],[1,1,0],[0,0.25,0],[0,0.5,0],[0,0.75,0],[1,0.25,0],[1,0.5,0],[1,0.75,0]];outlineConnect=0;fontColor=#232F3E;fillColor=#000000;strokeColor=#ffffff;dashed=0;verticalLabelPosition=bottom;verticalAlign=top;align=center;html=1;fontSize=12;fontStyle=0;aspect=fixed;shape=mxgraph.aws4.resourceIcon;resIcon=mxgraph.aws4.compute;" vertex="1" parent="Ie8zL6aJrsVR2wh513dQ-46">
          <mxGeometry x="806.5" y="20" width="78" height="78" as="geometry" />
        </mxCell>
        <mxCell id="Ie8zL6aJrsVR2wh513dQ-47" value="" style="group" vertex="1" connectable="0" parent="1">
          <mxGeometry x="40" y="520" width="884.5" height="520" as="geometry" />
        </mxCell>
        <mxCell id="Ie8zL6aJrsVR2wh513dQ-51" value="API&lt;br&gt;" style="outlineConnect=0;fontColor=#232F3E;gradientColor=none;fillColor=#232F3E;strokeColor=none;dashed=0;verticalLabelPosition=bottom;verticalAlign=top;align=center;html=1;fontSize=12;fontStyle=0;aspect=fixed;pointerEvents=1;shape=mxgraph.aws4.external_sdk;labelBackgroundColor=none;" vertex="1" parent="Ie8zL6aJrsVR2wh513dQ-47">
          <mxGeometry x="806.5000000000002" y="133.5" width="68" height="78" as="geometry" />
        </mxCell>
        <mxCell id="Ie8zL6aJrsVR2wh513dQ-53" style="edgeStyle=none;rounded=0;orthogonalLoop=1;jettySize=auto;html=1;" edge="1" parent="Ie8zL6aJrsVR2wh513dQ-47" target="Ie8zL6aJrsVR2wh513dQ-51">
          <mxGeometry relative="1" as="geometry">
            <mxPoint x="620" y="60" as="sourcePoint" />
            <Array as="points">
              <mxPoint x="620" y="173" />
            </Array>
          </mxGeometry>
        </mxCell>
        <mxCell id="Ie8zL6aJrsVR2wh513dQ-56" value="API Server" style="sketch=0;points=[[0,0,0],[0.25,0,0],[0.5,0,0],[0.75,0,0],[1,0,0],[0,1,0],[0.25,1,0],[0.5,1,0],[0.75,1,0],[1,1,0],[0,0.25,0],[0,0.5,0],[0,0.75,0],[1,0.25,0],[1,0.5,0],[1,0.75,0]];outlineConnect=0;fontColor=#232F3E;fillColor=#ED7100;strokeColor=#ffffff;dashed=0;verticalLabelPosition=bottom;verticalAlign=top;align=center;html=1;fontSize=12;fontStyle=0;aspect=fixed;shape=mxgraph.aws4.resourceIcon;resIcon=mxgraph.aws4.ec2;" vertex="1" parent="Ie8zL6aJrsVR2wh513dQ-47">
          <mxGeometry x="400" y="17.5" width="78" height="78" as="geometry" />
        </mxCell>
        <mxCell id="Ie8zL6aJrsVR2wh513dQ-61" value="Amazon S3" style="outlineConnect=0;fontColor=#232F3E;gradientColor=#60A337;gradientDirection=north;fillColor=#277116;strokeColor=#ffffff;dashed=0;verticalLabelPosition=bottom;verticalAlign=top;align=center;html=1;fontSize=12;fontStyle=0;aspect=fixed;shape=mxgraph.aws4.resourceIcon;resIcon=mxgraph.aws4.s3;labelBackgroundColor=none;" vertex="1" parent="Ie8zL6aJrsVR2wh513dQ-47">
          <mxGeometry x="220" y="17.5" width="78" height="78" as="geometry" />
        </mxCell>
        <mxCell id="Ie8zL6aJrsVR2wh513dQ-62" value="" style="edgeStyle=elbowEdgeStyle;rounded=0;orthogonalLoop=1;jettySize=auto;html=1;endArrow=open;endFill=0;strokeColor=#545B64;strokeWidth=2;fontSize=14;exitX=0;exitY=0.5;exitDx=0;exitDy=0;exitPerimeter=0;" edge="1" parent="Ie8zL6aJrsVR2wh513dQ-47" target="Ie8zL6aJrsVR2wh513dQ-61">
          <mxGeometry relative="1" as="geometry">
            <mxPoint x="400" y="56.5" as="sourcePoint" />
          </mxGeometry>
        </mxCell>
        <mxCell id="Ie8zL6aJrsVR2wh513dQ-65" style="edgeStyle=orthogonalEdgeStyle;rounded=0;orthogonalLoop=1;jettySize=auto;html=1;exitX=1;exitY=0.5;exitDx=0;exitDy=0;exitPerimeter=0;" edge="1" parent="Ie8zL6aJrsVR2wh513dQ-47" source="Ie8zL6aJrsVR2wh513dQ-56">
          <mxGeometry relative="1" as="geometry">
            <mxPoint x="805.0454545454545" y="56.5" as="targetPoint" />
          </mxGeometry>
        </mxCell>
        <mxCell id="Ie8zL6aJrsVR2wh513dQ-66" value="AWS Public VPC" style="points=[[0,0],[0.25,0],[0.5,0],[0.75,0],[1,0],[1,0.25],[1,0.5],[1,0.75],[1,1],[0.75,1],[0.5,1],[0.25,1],[0,1],[0,0.75],[0,0.5],[0,0.25]];outlineConnect=0;gradientColor=none;html=1;whiteSpace=wrap;fontSize=12;fontStyle=0;shape=mxgraph.aws4.group;grIcon=mxgraph.aws4.group_aws_cloud_alt;strokeColor=#009900;fillColor=none;verticalAlign=top;align=left;spacingLeft=30;fontColor=#232F3E;dashed=0;labelBackgroundColor=none;container=0;pointerEvents=0;collapsible=0;recursiveResize=0;movable=1;resizable=1;rotatable=1;deletable=1;editable=1;locked=0;connectable=1;" vertex="1" parent="Ie8zL6aJrsVR2wh513dQ-47">
          <mxGeometry x="450" y="0.5" width="334" height="239.5" as="geometry" />
        </mxCell>
        <mxCell id="Ie8zL6aJrsVR2wh513dQ-67" value="AWS Private VPC" style="points=[[0,0],[0.25,0],[0.5,0],[0.75,0],[1,0],[1,0.25],[1,0.5],[1,0.75],[1,1],[0.75,1],[0.5,1],[0.25,1],[0,1],[0,0.75],[0,0.5],[0,0.25]];outlineConnect=0;gradientColor=none;html=1;whiteSpace=wrap;fontSize=12;fontStyle=0;shape=mxgraph.aws4.group;grIcon=mxgraph.aws4.group_aws_cloud_alt;strokeColor=#FF6F0F;fillColor=none;verticalAlign=top;align=left;spacingLeft=30;fontColor=#232F3E;dashed=0;labelBackgroundColor=none;container=0;pointerEvents=0;collapsible=0;recursiveResize=0;movable=1;resizable=1;rotatable=1;deletable=1;editable=1;locked=0;connectable=1;" vertex="1" parent="Ie8zL6aJrsVR2wh513dQ-47">
          <mxGeometry width="445" height="240" as="geometry" />
        </mxCell>
        <mxCell id="Ie8zL6aJrsVR2wh513dQ-72" value="API&lt;br&gt;" style="outlineConnect=0;fontColor=#232F3E;gradientColor=none;fillColor=#232F3E;strokeColor=none;dashed=0;verticalLabelPosition=bottom;verticalAlign=top;align=center;html=1;fontSize=12;fontStyle=0;aspect=fixed;pointerEvents=1;shape=mxgraph.aws4.external_sdk;labelBackgroundColor=none;" vertex="1" parent="Ie8zL6aJrsVR2wh513dQ-47">
          <mxGeometry x="806.5000000000002" y="413.5" width="68" height="78" as="geometry" />
        </mxCell>
        <mxCell id="Ie8zL6aJrsVR2wh513dQ-73" style="edgeStyle=none;rounded=0;orthogonalLoop=1;jettySize=auto;html=1;" edge="1" parent="Ie8zL6aJrsVR2wh513dQ-47" target="Ie8zL6aJrsVR2wh513dQ-72">
          <mxGeometry relative="1" as="geometry">
            <mxPoint x="620" y="340" as="sourcePoint" />
            <Array as="points">
              <mxPoint x="620" y="453" />
            </Array>
          </mxGeometry>
        </mxCell>
        <mxCell id="Ie8zL6aJrsVR2wh513dQ-74" value="API Server" style="sketch=0;points=[[0,0,0],[0.25,0,0],[0.5,0,0],[0.75,0,0],[1,0,0],[0,1,0],[0.25,1,0],[0.5,1,0],[0.75,1,0],[1,1,0],[0,0.25,0],[0,0.5,0],[0,0.75,0],[1,0.25,0],[1,0.5,0],[1,0.75,0]];outlineConnect=0;fontColor=#232F3E;fillColor=#ED7100;strokeColor=#ffffff;dashed=0;verticalLabelPosition=bottom;verticalAlign=top;align=center;html=1;fontSize=12;fontStyle=0;aspect=fixed;shape=mxgraph.aws4.resourceIcon;resIcon=mxgraph.aws4.ec2;" vertex="1" parent="Ie8zL6aJrsVR2wh513dQ-47">
          <mxGeometry x="400" y="297.5" width="78" height="78" as="geometry" />
        </mxCell>
        <mxCell id="Ie8zL6aJrsVR2wh513dQ-75" value="Amazon S3" style="outlineConnect=0;fontColor=#232F3E;gradientColor=#60A337;gradientDirection=north;fillColor=#277116;strokeColor=#ffffff;dashed=0;verticalLabelPosition=bottom;verticalAlign=top;align=center;html=1;fontSize=12;fontStyle=0;aspect=fixed;shape=mxgraph.aws4.resourceIcon;resIcon=mxgraph.aws4.s3;labelBackgroundColor=none;" vertex="1" parent="Ie8zL6aJrsVR2wh513dQ-47">
          <mxGeometry x="220" y="297.5" width="78" height="78" as="geometry" />
        </mxCell>
        <mxCell id="Ie8zL6aJrsVR2wh513dQ-76" value="" style="edgeStyle=elbowEdgeStyle;rounded=0;orthogonalLoop=1;jettySize=auto;html=1;endArrow=open;endFill=0;strokeColor=#545B64;strokeWidth=2;fontSize=14;exitX=0;exitY=0.5;exitDx=0;exitDy=0;exitPerimeter=0;" edge="1" parent="Ie8zL6aJrsVR2wh513dQ-47" target="Ie8zL6aJrsVR2wh513dQ-75">
          <mxGeometry relative="1" as="geometry">
            <mxPoint x="400" y="336.5" as="sourcePoint" />
          </mxGeometry>
        </mxCell>
        <mxCell id="Ie8zL6aJrsVR2wh513dQ-77" style="edgeStyle=orthogonalEdgeStyle;rounded=0;orthogonalLoop=1;jettySize=auto;html=1;exitX=1;exitY=0.5;exitDx=0;exitDy=0;exitPerimeter=0;" edge="1" parent="Ie8zL6aJrsVR2wh513dQ-47" source="Ie8zL6aJrsVR2wh513dQ-74">
          <mxGeometry relative="1" as="geometry">
            <mxPoint x="805.0454545454545" y="336.5" as="targetPoint" />
          </mxGeometry>
        </mxCell>
        <mxCell id="Ie8zL6aJrsVR2wh513dQ-78" value="AWS Public VPC" style="points=[[0,0],[0.25,0],[0.5,0],[0.75,0],[1,0],[1,0.25],[1,0.5],[1,0.75],[1,1],[0.75,1],[0.5,1],[0.25,1],[0,1],[0,0.75],[0,0.5],[0,0.25]];outlineConnect=0;gradientColor=none;html=1;whiteSpace=wrap;fontSize=12;fontStyle=0;shape=mxgraph.aws4.group;grIcon=mxgraph.aws4.group_aws_cloud_alt;strokeColor=#009900;fillColor=none;verticalAlign=top;align=left;spacingLeft=30;fontColor=#232F3E;dashed=0;labelBackgroundColor=none;container=0;pointerEvents=0;collapsible=0;recursiveResize=0;movable=1;resizable=1;rotatable=1;deletable=1;editable=1;locked=0;connectable=1;" vertex="1" parent="Ie8zL6aJrsVR2wh513dQ-47">
          <mxGeometry x="450" y="280.5" width="334" height="239.5" as="geometry" />
        </mxCell>
        <mxCell id="Ie8zL6aJrsVR2wh513dQ-79" value="AWS Private VPC" style="points=[[0,0],[0.25,0],[0.5,0],[0.75,0],[1,0],[1,0.25],[1,0.5],[1,0.75],[1,1],[0.75,1],[0.5,1],[0.25,1],[0,1],[0,0.75],[0,0.5],[0,0.25]];outlineConnect=0;gradientColor=none;html=1;whiteSpace=wrap;fontSize=12;fontStyle=0;shape=mxgraph.aws4.group;grIcon=mxgraph.aws4.group_aws_cloud_alt;strokeColor=#FF6F0F;fillColor=none;verticalAlign=top;align=left;spacingLeft=30;fontColor=#232F3E;dashed=0;labelBackgroundColor=none;container=0;pointerEvents=0;collapsible=0;recursiveResize=0;movable=1;resizable=1;rotatable=1;deletable=1;editable=1;locked=0;connectable=1;" vertex="1" parent="Ie8zL6aJrsVR2wh513dQ-47">
          <mxGeometry y="280" width="445" height="240" as="geometry" />
        </mxCell>
        <mxCell id="Ie8zL6aJrsVR2wh513dQ-86" value="Customer Applications&lt;br&gt;" style="sketch=0;points=[[0,0,0],[0.25,0,0],[0.5,0,0],[0.75,0,0],[1,0,0],[0,1,0],[0.25,1,0],[0.5,1,0],[0.75,1,0],[1,1,0],[0,0.25,0],[0,0.5,0],[0,0.75,0],[1,0.25,0],[1,0.5,0],[1,0.75,0]];outlineConnect=0;fontColor=#232F3E;fillColor=#000000;strokeColor=#ffffff;dashed=0;verticalLabelPosition=bottom;verticalAlign=top;align=center;html=1;fontSize=12;fontStyle=0;aspect=fixed;shape=mxgraph.aws4.resourceIcon;resIcon=mxgraph.aws4.compute;" vertex="1" parent="Ie8zL6aJrsVR2wh513dQ-47">
          <mxGeometry x="806.5" y="17.5" width="78" height="78" as="geometry" />
        </mxCell>
        <mxCell id="Ie8zL6aJrsVR2wh513dQ-87" value="Customer Applications&lt;br&gt;" style="sketch=0;points=[[0,0,0],[0.25,0,0],[0.5,0,0],[0.75,0,0],[1,0,0],[0,1,0],[0.25,1,0],[0.5,1,0],[0.75,1,0],[1,1,0],[0,0.25,0],[0,0.5,0],[0,0.75,0],[1,0.25,0],[1,0.5,0],[1,0.75,0]];outlineConnect=0;fontColor=#232F3E;fillColor=#000000;strokeColor=#ffffff;dashed=0;verticalLabelPosition=bottom;verticalAlign=top;align=center;html=1;fontSize=12;fontStyle=0;aspect=fixed;shape=mxgraph.aws4.resourceIcon;resIcon=mxgraph.aws4.compute;" vertex="1" parent="Ie8zL6aJrsVR2wh513dQ-47">
          <mxGeometry x="806.5" y="297.5" width="78" height="78" as="geometry" />
        </mxCell>
        <mxCell id="Ie8zL6aJrsVR2wh513dQ-57" style="edgeStyle=none;rounded=0;orthogonalLoop=1;jettySize=auto;html=1;entryX=0.5;entryY=1;entryDx=0;entryDy=0;entryPerimeter=0;exitX=1;exitY=0.5;exitDx=0;exitDy=0;exitPerimeter=0;" edge="1" parent="1" target="Ie8zL6aJrsVR2wh513dQ-7" source="Ie8zL6aJrsVR2wh513dQ-56">
          <mxGeometry relative="1" as="geometry">
            <mxPoint x="660" y="580" as="sourcePoint" />
            <Array as="points">
              <mxPoint x="660" y="577" />
            </Array>
          </mxGeometry>
        </mxCell>
      </root>
    </mxGraphModel>
  </diagram>
</mxfile>
